# xmcd CD database file
#
# Track frame offsets:
#	150
#	16819
#	38546
#	52129
#	65794
#	84574
#	100701
#	116169
#	131051
#	150524
#	170370
#	190858
#	206307
#
# Disc length: 3030 seconds
#
# Revision: 0
# Processed by: cddbd v1.5.2PL0 Copyright (c) Steve Scherf et al.
# Submitted via: CDex 1.51
#
DISCID=a80bd40d
DTITLE=térez montcalm - quand on s'aime
DYEAR=2015
DGENRE=Jazz
TTITLE0=l'amour c'est comme un jour
TTITLE1=black trombone
TTITLE2=quand on s'aime
TTITLE3=chagrin d'amour
TTITLE4=docteur (fever)
TTITLE5=la belle vie
TTITLE6=les yeux ouverts (dream a little dream of me)
TTITLE7=petite fleur
TTITLE8=le temps s'arrête
TTITLE9=que veux tu que je te dise ?
TTITLE10=les feuilles mortes
TTITLE11=juste nous deux
TTITLE12=que reste-til de nos amours ?
EXTD=YEAR: 2015
EXTT0=
EXTT1=
EXTT2=
EXTT3=
EXTT4=
EXTT5=
EXTT6=
EXTT7=
EXTT8=
EXTT9=
EXTT10=
EXTT11=
EXTT12=
PLAYORDER=
